<svg xmlns="http://www.w3.org/2000/svg" xmlns:xlink="http://www.w3.org/1999/xlink" width="48" height="48"><defs><linearGradient id="b"><stop offset="0" style="stop-color:black;stop-opacity:0"/><stop offset=".5" style="stop-color:black;stop-opacity:1"/><stop offset="1" style="stop-color:black;stop-opacity:0"/></linearGradient><linearGradient xlink:href="#b" id="i" x1="17.554" x2="17.554" y1="46" y2="35" gradientTransform="matrix(1.75703 0 0 1.39696 -17.394 -16.412)" gradientUnits="userSpaceOnUse"/><linearGradient id="a"><stop offset="0" style="stop-color:black;stop-opacity:1"/><stop offset="1" style="stop-color:black;stop-opacity:0"/></linearGradient><linearGradient id="c"><stop offset="0" style="stop-color:#c9af8b;stop-opacity:1"/><stop offset=".239" style="stop-color:#ad8757;stop-opacity:1"/><stop offset=".276" style="stop-color:#c2a57f;stop-opacity:1"/><stop offset="1" style="stop-color:#9d7d53;stop-opacity:1"/></linearGradient><linearGradient xlink:href="#c" id="l" x1="15.464" x2="15.464" y1="7.976" y2="45.042" gradientUnits="userSpaceOnUse"/><linearGradient id="d"><stop offset="0" style="stop-color:#dac197;stop-opacity:1"/><stop offset=".239" style="stop-color:#c1a581;stop-opacity:1"/><stop offset=".276" style="stop-color:#dbc298;stop-opacity:1"/><stop offset="1" style="stop-color:#a68b60;stop-opacity:1"/></linearGradient><linearGradient xlink:href="#d" id="k" x1="24.823" x2="24.997" y1="15.378" y2="37.277" gradientTransform="matrix(1.28223 0 0 1.55726 -6.07 -15.29)" gradientUnits="userSpaceOnUse"/><linearGradient id="e"><stop offset="0" style="stop-color:white;stop-opacity:0"/><stop offset="1" style="stop-color:white;stop-opacity:0"/></linearGradient><linearGradient xlink:href="#e" id="m" x1="23.452" x2="43.007" y1="30.555" y2="45.934" gradientTransform="matrix(1.28223 0 0 1.17469 -6.07 -5.303)" gradientUnits="userSpaceOnUse"/><linearGradient id="f"><stop offset="0" style="stop-color:white;stop-opacity:1"/><stop offset=".302" style="stop-color:white;stop-opacity:1"/><stop offset=".344" style="stop-color:white;stop-opacity:.6901961"/><stop offset="1" style="stop-color:white;stop-opacity:0"/></linearGradient><linearGradient xlink:href="#f" id="n" x1="26" x2="26" y1="22" y2="8" gradientUnits="userSpaceOnUse"/><linearGradient id="g"><stop offset="0" style="stop-color:white;stop-opacity:0"/><stop offset=".245" style="stop-color:white;stop-opacity:1"/><stop offset=".774" style="stop-color:white;stop-opacity:1"/><stop offset="1" style="stop-color:white;stop-opacity:0"/></linearGradient><linearGradient xlink:href="#g" id="o" x1="44.995" x2="3.005" y1="17.5" y2="17.5" gradientUnits="userSpaceOnUse" spreadMethod="reflect"/><radialGradient xlink:href="#a" id="j" cx="5" cy="41.5" r="5" fx="5" fy="41.5" gradientTransform="matrix(.59382 0 0 1.53665 41.14 -103.936)" gradientUnits="userSpaceOnUse"/><radialGradient xlink:href="#a" id="h" cx="5" cy="41.5" r="5" fx="5" fy="41.5" gradientTransform="matrix(.59382 0 0 1.53665 -6.66 -103.936)" gradientUnits="userSpaceOnUse"/></defs><g style="opacity:.4;display:inline"><path d="M-3.69-47.848h2.96v15.367h-2.96z" style="fill:url(#h);fill-opacity:1;stroke:none" transform="matrix(-.99266 0 0 -.97615 .275 1.293)"/><path d="M3.69 32.482h40.412v15.367H3.69z" style="fill:url(#i);fill-opacity:1;stroke:none" transform="matrix(.99266 0 0 .97615 .275 1.293)"/><path d="M44.11-47.848h2.96v15.367h-2.96z" style="fill:url(#j);fill-opacity:1;stroke:none;display:inline" transform="matrix(.99266 0 0 -.97615 .275 1.293)"/></g><path d="M9.01 8.5h29.498c1.722 0 2.497-.287 2.992 1l3.002 8v25.674c0 1.553.103 1.316-1.62 1.316H5.118c-1.722 0-1.619.237-1.619-1.316V17.5l3.002-8c.48-1.26.789-1 2.51-1z" style="fill:url(#k);fill-opacity:1;fill-rule:nonzero;stroke:url(#l);stroke-width:.99420077;stroke-linecap:round;stroke-linejoin:miter;stroke-miterlimit:4;stroke-opacity:1;stroke-dasharray:none;stroke-dashoffset:0;marker:none;visibility:visible;display:block;overflow:visible"/><path d="M9.948 9.513h27.653c1.614 0 2.613.556 3.29 2.086l2.329 6.42v23.144c0 1.46-.82 2.196-2.434 2.196H7.053c-1.614 0-2.273-.808-2.273-2.27V18.02l2.254-6.558c.451-1.185 1.3-1.948 2.914-1.948z" style="opacity:.50549454;fill:none;stroke:url(#m);stroke-width:.74211526;stroke-linecap:butt;stroke-linejoin:miter;stroke-miterlimit:4;stroke-opacity:1;stroke-dasharray:none;stroke-dashoffset:0;marker:none;visibility:visible;display:block;overflow:visible"/><path d="M22 8h4v14h-4z" style="opacity:.4;fill:url(#n);fill-opacity:1;fill-rule:nonzero;stroke:none;stroke-width:1;marker:none;visibility:visible;display:inline;overflow:visible"/><path d="M8.858 41h1.596v-5.196c.35-.085 1.12.249.96-.348-.102-.335.226-1.101-.209-1.104-.485.05-.933.061-.751-.556v-1.664H8.858v2.22c-.427-.005-.982-.137-.78.487.086.351-.25 1.124.347.965.627-.204.397.448.433.834zm10.101-6.648h-1.464c.003.555.108 1.228-.437.416-1.637-1.296-4.374-.3-4.925 1.69-.661 1.811.301 4.176 2.286 4.595 1.094.292 2.365.01 3.076-.917.048.38-.209 1.063.417.864.309-.11 1.076.239 1.047-.209zm-3.468 1.308c1.581-.091 2.457 1.89 1.673 3.144-.78 1.464-3.383 1.034-3.58-.65-.261-1.205.596-2.55 1.907-2.494M20.15 41h1.596c.027-1.407-.058-2.82.05-4.222-.04-1.15 1.695-.623 1.378-1.672.046-.582.108-1.301-.765-.817-.802.592-.682.734-.934.063h-1.325zm4.06 0h1.596v-1.536h-1.596zm8.295-6.648c-.003.514.117 1.19-.412.4-1.628-1.253-4.301-.305-4.845 1.667-.66 1.849.33 4.308 2.389 4.67 1.043.237 2.217-.084 2.868-.965.17 1.429-1.238 2.555-2.591 2.036-.634-.358-1.132-.787-1.91-.62-.627-.07-1.189-.027-.462.69 1.391 1.957 5.01 1.964 6.118-.291.591-1.494.298-3.134.37-4.701v-2.886zm-1.992 1.308c1.458-.092 2.303 1.618 1.784 2.857-.5 1.64-3.249 1.53-3.557-.183-.348-1.205.366-2.745 1.773-2.674M34.858 41h5.064v-1.428h-3.156l2.928-3.792v-1.428h-4.5v1.428h2.592l-2.928 3.792z" style="font-size:12px;font-style:normal;font-variant:normal;font-weight:700;font-stretch:normal;text-align:start;line-height:100%;writing-mode:lr-tb;text-anchor:start;opacity:.4;fill:#000;fill-opacity:1;stroke:none;display:inline;font-family:URW Gothic L;-inkscape-font-specification:URW Gothic L Semi-Bold"/><path d="M3.505 17.5h40.99" style="opacity:.4;fill:none;stroke:url(#o);stroke-width:1px;stroke-linecap:square;stroke-linejoin:miter;stroke-opacity:1;display:inline"/></svg>